#!OML:ASF H:\Dans Jumps\Project 1\Capture day 1\Session 1\subject.ASF
:FULLY-SPECIFIED
:DEGREES
402
root 0.285175 14.4517 -14.5973 19.5233 0.206506 -1.09924
lowerback 23.9219 0.356356 -1.88558
upperback 4.40892 0.264632 2.76366
thorax -8.48544 0.207777 4.05367
lowerneck -23.0958 1.03279 -1.56936
upperneck 17.4515 2.18949 -1.09208
head 9.28804 0.779657 0.19149
rclavicle -9.93923e-016 -1.53064e-014
rhumerus -11.705 4.57011 -81.3798
rradius 78.346
rwrist 3.37857
rhand -25.9297 -26.524
rfingers 7.12502
rthumb 0.613629 -56.5029
lclavicle -9.93923e-016 -1.53064e-014
lhumerus -8.06183 -11.9628 82.6647
lradius 73.2329
lwrist 40.5524
lhand -34.0415 -15.7209
lfingers 7.12502
lthumb -7.21962 14.1359
rfemur -61.9512 -6.23775 22.3695
rtibia 80.845
rfoot -33.7193 -15.9907
rtoes -6.11147
lfemur -61.1873 8.89099 -20.9323
ltibia 79.9241
lfoot -31.4209 17.2055
ltoes -12.4055
403
root 0.284773 14.6098 -14.4511 18.7506 0.24125 -1.04398
lowerback 23.4298 0.316935 -1.8993
upperback 4.29606 0.212171 2.73201
thorax -8.34924 0.182228 4.03567
lowerneck -22.7533 1.04348 -1.5634
upperneck 18.1063 2.19366 -1.02889
head 9.4573 0.782001 0.213972
rclavicle -6.95746e-015 -1.19271e-015
rhumerus -11.6464 5.35949 -81.3848
rradius 81.1146
rwrist 3.19315
rhand -26.0589 -26.5033
rfingers 7.12502
rthumb 0.488827 -56.4825
lclavicle -6.95746e-015 -1.19271e-015
lhumerus -8.35179 -12.3552 82.5756
lradius 76.8773
lwrist 42.0866
lhand -33.4752 -15.8476
lfingers 7.12502
lthumb -6.67297 14.0272
rfemur -59.4195 -6.73728 22.3031
rtibia 79.0583
rfoot -33.5955 -15.5604
rtoes -6.3414
lfemur -58.6494 9.03036 -20.7952
ltibia 78.1465
lfoot -31.1213 16.9491
ltoes -12.7712
404
root 0.284512 14.7832 -14.2964 17.9361 0.265969 -0.985986
lowerback 22.8946 0.284536 -1.90784
upperback 4.21138 0.168849 2.68835
thorax -8.15872 0.159194 3.99709
lowerneck -22.3262 1.03853 -1.56584
upperneck 18.7711 2.17185 -0.944359
head 9.61527 0.774743 0.241127
rclavicle -4.96962e-015 1.86858e-014
rhumerus -11.7354 6.04641 -81.424
rradius 83.7128
rwrist 3.19176
rhand -26.1928 -26.4134
rfingers 7.12502
rthumb 0.359516 -56.3928
lclavicle -4.96962e-015 1.86858e-014
lhumerus -8.8047 -12.7849 82.54
lradius 80.3492
lwrist 42.9445
lhand -32.993 -15.8758
lfingers 7.12502
lthumb -6.20745 14.0133
rfemur -56.7194 -7.23853 22.2062
rtibia 77.0737
rfoot -33.3061 -15.1022
rtoes -6.66554
lfemur -55.9612 9.17255 -20.6451
ltibia 76.2028
lfoot -30.6314 16.6214
ltoes -13.2544
405
root 0.284067 14.9708 -14.1337 17.1 0.288745 -0.921429
lowerback 22.2881 0.25746 -1.91442
upperback 4.15687 0.13231 2.6353
thorax -7.89674 0.137421 3.94318
lowerneck -21.8176 1.01646 -1.57868
upperneck 19.442 2.12355 -0.844167
head 9.76077 0.756911 0.271254
rclavicle 4.17448e-015 -2.74323e-014
rhumerus -11.9544 6.64314 -81.4979
rradius 86.1391
rwrist 3.28932
rhand -26.3239 -26.2467
rfingers 7.12502
rthumb 0.232943 -56.2263
lclavicle 4.17448e-015 -2.74323e-014
lhumerus -9.39882 -13.2747 82.5573
lradius 83.599
lwrist 43.0587
lhand -32.7036 -15.8452
lfingers 7.12502
lthumb -5.9281 14.0519
rfemur -53.8976 -7.73699 22.0801
rtibia 74.9172
rfoot -32.811 -14.621
rtoes -7.10499
lfemur -53.1792 9.30459 -20.4822
ltibia 74.1314
lfoot -29.8967 16.2077
ltoes -13.9142
406
root 0.283074 15.1707 -13.9651 16.2858 0.2995 -0.852134
lowerback 21.5706 0.240572 -1.93023
upperback 4.1247 0.107193 2.57571
thorax -7.55149 0.119422 3.88205
lowerneck -21.2376 0.977669 -1.60193
upperneck 20.1266 2.05117 -0.736299
head 9.89821 0.728479 0.302063
rclavicle -6.95746e-015 -1.66979e-014
rhumerus -12.2951 7.16057 -81.605
rradius 88.3876
rwrist 3.44032
rhand -26.459 -25.9654
rfingers 7.12502
rthumb 0.102434 -55.9451
lclavicle -6.95746e-015 -1.66979e-014
lhumerus -10.1228 -13.8324 82.6271
lradius 86.6116
lwrist 42.5411
lhand -32.6053 -15.8319
lfingers 7.12502
lthumb -5.83316 14.0678
rfemur -51.0433 -8.20565 21.9299
rtibia 72.6318
rfoot -32.065 -14.1121
rtoes -7.66008
lfemur -50.4034 9.43308 -20.3123
ltibia 71.9888
lfoot -28.884 15.6591
ltoes -14.7224
407
root 0.281444 15.3821 -13.7915 15.5144 0.288806 -0.782146
lowerback 20.7231 0.236607 -1.95829
upperback 4.11551 0.0972141 2.51083
thorax -7.11216 0.106951 3.81616
lowerneck -20.5926 0.922669 -1.64616
upperneck 20.8171 1.95565 -0.610089
head 10.0255 0.690376 0.339279
rclavicle -9.93923e-016 -1.31198e-014
rhumerus -12.7339 7.61198 -81.7423
rradius 90.4635
rwrist 3.5651
rhand -26.5868 -25.6479
rfingers 7.12502
rthumb -0.020968 -55.6277
lclavicle -9.93923e-016 -1.31198e-014
lhumerus -10.9514 -14.4464 82.7405
lradius 89.3881
lwrist 41.6155
lhand -32.6226 -15.8302
lfingers 7.12502
lthumb -5.84982 14.0691
rfemur -48.2101 -8.62179 21.7584
rtibia 70.2563
rfoot -31.0382 -13.5482
rtoes -8.28894
lfemur -47.6954 9.5667 -20.1346
ltibia 69.8222
lfoot -27.5744 14.9208
ltoes -15.5884
408
root 0.279268 15.6045 -13.6146 14.8078 0.26491 -0.708751
lowerback 19.7469 0.240002 -1.99959
upperback 4.12246 0.0960089 2.44276
thorax -6.58625 0.0973309 3.75105
lowerneck -19.8884 0.858332 -1.70753
upperneck 21.5043 1.84601 -0.471318
head 10.1403 0.646307 0.381679
rclavicle -3.18055e-015 -1.39149e-014
rhumerus -13.2526 8.01508 -81.9073
rradius 92.3599
rwrist 3.68586
rhand -26.7245 -25.3312
rfingers 7.12502
rthumb -0.154 -55.3109
lclavicle -3.18055e-015 -1.39149e-014
lhumerus -11.8709 -15.0906 82.8923
lradius 91.9572
lwrist 40.5609
lhand -32.6846 -15.8438
lfingers 7.12502
lthumb -5.90968 14.0538
rfemur -45.4579 -8.9792 21.5634
rtibia 67.8322
rfoot -29.6969 -12.8992
rtoes -8.98222
lfemur -45.1199 9.69177 -19.952
ltibia 67.6701
lfoot -25.9535 13.9436
ltoes -16.4403
409
root 0.277056 15.8388 -13.4354 14.1558 0.23462 -0.631602
lowerback 18.6748 0.244767 -2.04405
upperback 4.14962 0.0979929 2.36789
thorax -5.98611 0.0878789 3.6796
lowerneck -19.1365 0.790205 -1.77972
upperneck 22.1708 1.72685 -0.317746
head 10.2384 0.599206 0.429792
rclavicle -1.19271e-015 -3.57812e-015
rhumerus -13.8327 8.37127 -82.0994
rradius 94.078
rwrist 3.81591
rhand -26.8492 -25.0147
rfingers 7.12502
rthumb -0.274465 -54.9942
lclavicle -1.19271e-015 -3.57812e-015
lhumerus -12.8568 -15.7453 83.0662
lradius 94.3514
lwrist 39.6446
lhand -32.7236 -15.8786
lfingers 7.12502
lthumb -5.94735 14.0179
rfemur -42.8254 -9.26593 21.3326
rtibia 65.4848
rfoot -28.0988 -12.1161
rtoes -9.64143
lfemur -42.7127 9.79355 -19.761
ltibia 65.6429
lfoot -24.0785 12.711
ltoes -17.1486
